<?xml version="1.0" encoding="UTF-8"?>
<svg version="1.1" xmlns="http://www.w3.org/2000/svg" width="180" height="180">
<path d="M0 0 C0.1875 2.875 0.1875 2.875 0 6 C-3.07209099 8.04806066 -3.95628291 8.27221906 -7.46484375 8.45703125 C-8.77932495 8.54319702 -8.77932495 8.54319702 -10.12036133 8.63110352 C-11.51484497 8.72089478 -11.51484497 8.72089478 -12.9375 8.8125 C-21.4882988 9.51693843 -28.3882714 10.85271252 -36 15 C-36.62745117 15.3295166 -37.25490234 15.6590332 -37.90136719 15.99853516 C-48.89819782 21.78373363 -60.21495496 28.07234568 -67.6875 38.3125 C-68.120625 38.869375 -68.55375 39.42625 -69 40 C-69.66 40 -70.32 40 -71 40 C-71.2475 40.66 -71.495 41.32 -71.75 42 C-73 45 -73 45 -73.953125 46.7265625 C-77.69591618 53.51386292 -78.53249942 60.40674966 -79.52734375 68.00390625 C-79.66148682 69.02762329 -79.66148682 69.02762329 -79.79833984 70.07202148 C-80.05278543 72.04950109 -80.29423085 74.02864017 -80.53515625 76.0078125 C-81 79 -81 79 -82 80 C-82.95567495 91.32107249 -80.02284116 99.12751909 -75 109 C-75 109.66 -75 110.32 -75 111 C-74.34 111 -73.68 111 -73 111 C-73 111.66 -73 112.32 -73 113 C-72.34 113 -71.68 113 -71 113 C-69.31126121 114.64429829 -67.64694485 116.31384218 -66 118 C-65.236875 118.556875 -64.47375 119.11375 -63.6875 119.6875 C-63.130625 120.120625 -62.57375 120.55375 -62 121 C-62 121.66 -62 122.32 -62 123 C-60.35 123.66 -58.7 124.32 -57 125 C-57 125.66 -57 126.32 -57 127 C-56.42121094 127.25394531 -55.84242187 127.50789062 -55.24609375 127.76953125 C-52.02187071 129.53584474 -49.6938562 132.06116453 -47.09765625 134.63671875 C-45.02759641 136.29563547 -45.02759641 136.29563547 -42.24609375 135.70703125 C-41.50488281 135.47371094 -40.76367188 135.24039063 -40 135 C-40 136.32 -40 137.64 -40 139 C-36.49627894 140.53851827 -33.37354401 141.36834516 -29.578125 141.81640625 C-28.03898437 142.00299805 -28.03898437 142.00299805 -26.46875 142.19335938 C-25.4065625 142.31517578 -24.344375 142.43699219 -23.25 142.5625 C-22.20328125 142.68818359 -21.1565625 142.81386719 -20.078125 142.94335938 C-18.01492747 143.18965358 -15.95104064 143.43024865 -13.88647461 143.66479492 C-12.0754118 143.87511288 -10.26588605 144.09967359 -8.45922852 144.3449707 C-3.88234213 144.94502025 -0.01848947 144.95763587 4.5625 144.0625 C6.11130859 143.77052734 6.11130859 143.77052734 7.69140625 143.47265625 C8.45324219 143.31667969 9.21507813 143.16070312 10 143 C10.33 141.35 10.66 139.7 11 138 C11.5775 138.20625 12.155 138.4125 12.75 138.625 C15.02061731 139.2341046 15.02061731 139.2341046 16.9375 138 C19.67322017 136.67359022 21.10242426 137.27560606 24 138 C28.923733 138 31.81343999 137.29817439 35.9765625 134.7421875 C36.72526611 134.28457031 37.47396973 133.82695312 38.24536133 133.35546875 C39.42328247 132.62263672 39.42328247 132.62263672 40.625 131.875 C41.43026123 131.37871094 42.23552246 130.88242188 43.06518555 130.37109375 C48.1458893 127.21773001 53.12230539 123.96006893 57.95703125 120.4375 C64.26358696 116 64.26358696 116 69 116 C69 115.01 69 114.02 69 113 C69.66 113 70.32 113 71 113 C71 112.34 71 111.68 71 111 C73.5 109.375 73.5 109.375 76 108 C76.54106635 112.84254381 74.84079884 115.42365289 72.25 119.4375 C71.55390625 120.52933594 70.8578125 121.62117188 70.140625 122.74609375 C69.43421875 123.81988281 68.7278125 124.89367187 68 126 C67.64099609 126.57637207 67.28199219 127.15274414 66.91210938 127.74658203 C65.99328495 129.19854624 65.00210444 130.60421167 64 132 C63.34 132 62.68 132 62 132 C61.731875 132.556875 61.46375 133.11375 61.1875 133.6875 C60.795625 134.450625 60.40375 135.21375 60 136 C59.566875 136.9075 59.13375 137.815 58.6875 138.75 C58.130625 139.4925 57.57375 140.235 57 141 C54.3125 141.3125 54.3125 141.3125 52 141 C52 141.99 52 142.98 52 144 C50.35 144 48.7 144 47 144 C47 145.65 47 147.3 47 149 C46.401875 148.814375 45.80375 148.62875 45.1875 148.4375 C42.83591238 147.77906313 42.83591238 147.77906313 40 149 C40 149.66 40 150.32 40 151 C39.34 151 38.68 151 38 151 C38 151.66 38 152.32 38 153 C37.34 153 36.68 153 36 153 C36 154.65 36 156.3 36 158 C34.02 158 32.04 158 30 158 C30 159.32 30 160.64 30 162 C28.68 161.67 27.36 161.34 26 161 C26 160.34 26 159.68 26 159 C23.36 159.33 20.72 159.66 18 160 C18 160.99 18 161.98 18 163 C12.25 162.125 12.25 162.125 10 161 C-2.24570031 158.90292382 -13.66708868 158.68699043 -26 160 C-26 159.34 -26 158.68 -26 158 C-27.2375 157.62875 -27.2375 157.62875 -28.5 157.25 C-31.12954955 156.31087516 -33.21336784 155.3793117 -35.625 154.0625 C-40.04358493 151.75901289 -44.6115759 150.75447101 -49.4609375 149.7109375 C-52 149 -52 149 -54 147 C-56.23266249 146.64914306 -56.23266249 146.64914306 -58.75 146.5625 C-63.17188878 146.16802935 -66.31389067 145.65742766 -70 143 C-73.14110278 139.06508592 -75.52191037 135.09962273 -76 130 C-76.99 129.67 -77.98 129.34 -79 129 C-80.10546875 126.83984375 -80.10546875 126.83984375 -81.1875 123.9375 C-82.65925103 120.15880182 -84.20877158 116.50922858 -86.1015625 112.92578125 C-86.46612549 112.23299072 -86.83068848 111.5402002 -87.20629883 110.82641602 C-87.92767992 109.47233387 -88.66137901 108.12472119 -89.40893555 106.78491211 C-91.96087858 101.9524572 -92.35776788 98.45747614 -92 93 C-91.34 93 -90.68 93 -90 93 C-90.59642978 91.10171843 -91.20250163 89.20646499 -91.8125 87.3125 C-92.14894531 86.25675781 -92.48539062 85.20101562 -92.83203125 84.11328125 C-93.88867155 80.99232909 -93.88867155 80.99232909 -95.61328125 78.38671875 C-99.39378245 71.87999697 -96.71621529 62.87945249 -94.94921875 56.02734375 C-92.35716319 47.76049989 -87.17457772 42.97580822 -80.72119141 37.47436523 C-77.84563325 34.97165845 -75.67287358 32.72018401 -73.83984375 29.35546875 C-72.13894831 26.25341104 -70.82123674 24.57313678 -68.125 22.375 C-65.21653758 20.01721685 -65.21653758 20.01721685 -62.46484375 17.484375 C-58.85368125 13.98386093 -55.97535849 13.39917862 -51.1484375 13.23828125 C-48.72654898 12.9696718 -47.10519711 12.19548524 -45 11 C-45 10.34 -45 9.68 -45 9 C-38.59208262 6.11015491 -38.59208262 6.11015491 -35.3125 5.5 C-32.58525159 4.91032467 -31.18897936 3.67821751 -29 2 C-28.01 2 -27.02 2 -26 2 C-26 2.66 -26 3.32 -26 4 C-24.865625 3.401875 -23.73125 2.80375 -22.5625 2.1875 C-14.06414529 -1.971906 -9.00017532 -4.14901699 0 0 Z " fill="#8AD7D6" transform="translate(97,10)"/>
<path d="M0 0 C7.05375 -0.103125 14.1075 -0.20625 21.375 -0.3125 C23.58106934 -0.35802002 25.78713867 -0.40354004 28.06005859 -0.45043945 C29.83950284 -0.46506394 31.61896403 -0.47779995 33.3984375 -0.48828125 C34.74675659 -0.526651 34.74675659 -0.526651 36.12231445 -0.5657959 C42.88642428 -0.57037739 48.43924475 1.01779575 54 5 C54.495 6.485 54.495 6.485 55 8 C55.66 8 56.32 8 57 8 C59.98807096 13.00800692 59.60668914 18.34743285 59 24 C57.50973458 28.39397845 54.99156759 31.57654825 51 34 C51.81404297 34.47179687 51.81404297 34.47179687 52.64453125 34.953125 C53.35996094 35.38109375 54.07539062 35.8090625 54.8125 36.25 C55.87404297 36.87648438 55.87404297 36.87648438 56.95703125 37.515625 C59.31071605 39.22575927 60.58668592 40.44133964 62 43 C62.91608935 49.13381565 63.38764319 55.94006887 60.78125 61.6875 C55.81967823 67.86606107 48.53747247 70.34903959 41 72 C39.59600948 72.0828629 38.18865352 72.11786621 36.78222656 72.11352539 C35.5343335 72.11334412 35.5343335 72.11334412 34.26123047 72.11315918 C33.39643066 72.10804321 32.53163086 72.10292725 31.640625 72.09765625 C30.83866699 72.09664917 30.03670898 72.09564209 29.21044922 72.09460449 C26.2236182 72.08938473 23.23680762 72.07542347 20.25 72.0625 C13.5675 72.041875 6.885 72.02125 0 72 C0 48.24 0 24.48 0 0 Z M20 13 C20 18.28 20 23.56 20 29 C22.083125 29.04125 24.16625 29.0825 26.3125 29.125 C27.48425781 29.14820312 28.65601563 29.17140625 29.86328125 29.1953125 C33.16393661 29.25320618 33.16393661 29.25320618 36 27 C37.49549186 24.23334006 38.03751456 22.5252038 37.8125 19.375 C36.91622163 16.75510938 36.21411429 15.64008466 34 14 C30.87304498 12.98975299 28.02225674 12.89444399 24.75 12.9375 C22.39875 12.9684375 22.39875 12.9684375 20 13 Z M19 43 C18.97298592 45.10409639 18.95359777 47.20829178 18.9375 49.3125 C18.92589844 50.48425781 18.91429688 51.65601563 18.90234375 52.86328125 C18.85100102 56.03059195 18.85100102 56.03059195 20 59 C29.20692462 59.39804845 29.20692462 59.39804845 38 57 C38 56.34 38 55.68 38 55 C38.66 55 39.32 55 40 55 C40.94271002 51.74360341 40.94271002 51.74360341 41 48 C39.014491 45.21388254 37.46393943 43.29008117 33.99291992 42.60229492 C31.70464136 42.50808214 29.47411728 42.56291482 27.1875 42.6875 C26.39923828 42.71005859 25.61097656 42.73261719 24.79882812 42.75585938 C22.86506071 42.81445839 20.93227833 42.90413173 19 43 Z " fill="#8AD8D7" transform="translate(59,54)"/>
<path d="M0 0 C5.17511955 4.72304014 8.86991144 10.97354698 12.75390625 16.76171875 C14.8736046 19.92838433 14.8736046 19.92838433 17.02734375 22.39453125 C23.47510824 30.1781962 23.95090138 39.26836136 25 49 C25.66 49 26.32 49 27 49 C26.13329546 55.35583327 25.06965872 61.67551301 24 68 C23.34 68 22.68 68 22 68 C21.94392578 66.89591797 21.94392578 66.89591797 21.88671875 65.76953125 C21.40716417 58.6514368 20.74998804 54.55356033 15.375 49.5625 C12.59502068 46.56304863 12.33374757 45.0049708 12 41 C11.84298574 38.38084878 11.84298574 38.38084878 11 36 C9.34614767 34.65080468 7.678298 33.31866272 6 32 C3.65295294 28.1961651 2.60522303 25.47413897 3 21 C2.19949219 21.27972656 1.39898437 21.55945312 0.57421875 21.84765625 C-4.79882963 22.07667143 -7.86233388 19.40054749 -12.1875 16.4375 C-13.88798093 15.32087031 -15.58979596 14.20626952 -17.29296875 13.09375 C-18.10685059 12.55621094 -18.92073242 12.01867187 -19.75927734 11.46484375 C-26.84138978 6.83500341 -33.39181721 3.64223049 -41.61328125 1.6484375 C-45.52103602 0.58675617 -48.17158473 -1.17158473 -51 -4 C-50.63318342 -6.93453261 -50.13562754 -7.86437246 -48 -10 C-30.7651877 -13.44696246 -14.066921 -10.94093855 0 0 Z " fill="#8AD8D7" transform="translate(153,24)"/>
</svg>
